<?xml version="1.0" encoding="utf-8"?>
<!-- Generator: Adobe Illustrator 27.2.0, SVG Export Plug-In . SVG Version: 6.00 Build 0)  -->
<svg version="1.1" id="Layer_1" xmlns="http://www.w3.org/2000/svg" xmlns:xlink="http://www.w3.org/1999/xlink" x="0px" y="0px"
	 viewBox="0 0 100 100" style="enable-background:new 0 0 100 100;" xml:space="preserve">
<style type="text/css">
	.st0{fill:#FFFFFF;}
	.st1{fill:#E91E63;}
</style>
<path class="st0" d="M50.1,89.7v6.7c-25.8,0-46.7-20.9-46.7-46.7h6.7C10.1,71.8,28,89.7,50.1,89.7z"/>
<path class="st1" d="M50.1,76.4v6.7c-18.4,0-33.3-15-33.3-33.4s14.9-33.3,33.3-33.3v6.7c-14.7,0-26.7,11.9-26.7,26.7
	C23.5,64.5,35.4,76.4,50.1,76.4z"/>
<path class="st0" d="M50.1,63.1v6.7c-11,0-20-9-20-20s9-20,20-20s20,9,20,20h-6.7c0-7.4-6-13.3-13.3-13.3
	c-7.3-0.1-13.3,5.9-13.3,13.2C36.8,57.1,42.8,63.1,50.1,63.1z"/>
</svg>
